<?xml version="1.0" standalone="no"?>
<svg xmlns="http://www.w3.org/2000/svg" xmlns:xlink="http://www.w3.org/1999/xlink" width="100pt" height="163pt" viewBox="0.00 0.00 99.53 163.33">
<g id="graph0" class="graph" transform="translate(12.301258023323506,139.01986352719402) scale(0.796971372810233)" data-name="Automaton">

<polygon fill="white" stroke="none" points="-4,4 -4,-159.33 95.53,-159.33 95.53,4 -4,4" style=""/>
<!-- false -->
<g id="node1" class="node" pointer-events="visible" data-name="false">

<ellipse fill="none" stroke="red" cx="33.27" cy="-122.07" rx="29.06" ry="29.06" style=""/>
<ellipse fill="none" stroke="red" cx="33.27" cy="-122.07" rx="33.03" ry="33.03" style=""/>
<text text-anchor="middle" x="33.27" y="-117.87" font-family="Times,serif" font-size="14.00" style="">false</text>
</g>
<!-- false&#45;&gt;false -->
<g id="edge2" class="edge" data-name="false-&gt;false">

<path fill="none" stroke="black" d="M64.8,-133.25C75.72,-133.37 84.53,-129.64 84.53,-122.07 84.53,-117.33 81.09,-114.1 75.84,-112.37" style=""/>
<polygon fill="black" stroke="black" points="76.68,-108.95 66.3,-111.08 75.75,-115.89 76.68,-108.95" style=""/>
<text text-anchor="middle" x="88.03" y="-117.87" font-family="Times,serif" font-size="14.00" style="">b</text>
</g>
<!-- true -->
<g id="node2" class="node" pointer-events="visible" data-name="true">

<ellipse fill="none" stroke="black" cx="33.27" cy="-18" rx="27" ry="18" style=""/>
<text text-anchor="middle" x="33.27" y="-13.8" font-family="Times,serif" font-size="14.00" style="">true</text>
</g>
<!-- false&#45;&gt;true -->
<g id="edge1" class="edge" data-name="false-&gt;true">

<path fill="none" stroke="black" d="M24.65,-89.69C22.58,-78.44 21.39,-65.66 23.05,-54 23.39,-51.65 23.84,-49.24 24.38,-46.83" style=""/>
<polygon fill="black" stroke="black" points="27.72,-47.9 26.9,-37.34 20.95,-46.1 27.72,-47.9" style=""/>
<text text-anchor="middle" x="26.37" y="-58.2" font-family="Times,serif" font-size="14.00" style="">a</text>
</g>
<!-- true&#45;&gt;false -->
<g id="edge3" class="edge" data-name="true-&gt;false">

<path fill="none" stroke="black" d="M33.27,-36.26C33.27,-47.56 33.27,-62.89 33.27,-77.4" style=""/>
<polygon fill="black" stroke="black" points="29.77,-77.26 33.27,-87.26 36.77,-77.26 29.77,-77.26" style=""/>
<text text-anchor="middle" x="36.37" y="-58.2" font-family="Times,serif" font-size="14.00" style="">a</text>
</g>
<!-- true&#45;&gt;true -->
<g id="edge4" class="edge" data-name="true-&gt;true">

<path fill="none" stroke="black" d="M57.8,-26.19C68.77,-26.98 78.27,-24.24 78.27,-18 78.27,-14.1 74.56,-11.57 69.1,-10.41" style=""/>
<polygon fill="black" stroke="black" points="69.48,-6.92 59.31,-9.89 69.11,-13.91 69.48,-6.92" style=""/>
<text text-anchor="middle" x="81.77" y="-13.8" font-family="Times,serif" font-size="14.00" style="">b</text>
</g>
</g>
</svg>